<svg xmlns="http://www.w3.org/2000/svg" xmlns:xlink="http://www.w3.org/1999/xlink" width="2000" zoomAndPan="magnify" viewBox="0 0 1500 1499.999933" height="2000" preserveAspectRatio="xMidYMid meet" version="1.0"><defs><clipPath id="63fdadc035"><path d="M 783 52.011719 L 1437 52.011719 L 1437 530 L 783 530 Z M 783 52.011719 " clip-rule="nonzero"/></clipPath><clipPath id="b5b3bc57c8"><path d="M 132 52.011719 L 254 52.011719 L 254 938 L 132 938 Z M 132 52.011719 " clip-rule="nonzero"/></clipPath><clipPath id="98284016bf"><path d="M 132 52.011719 L 1437 52.011719 L 1437 174 L 132 174 Z M 132 52.011719 " clip-rule="nonzero"/></clipPath></defs><path fill="#ffba00" d="M 758.324219 1064.058594 L 655.96875 1064.058594 L 655.96875 961.703125 L 758.324219 961.703125 Z M 758.324219 1064.058594 " fill-opacity="1" fill-rule="nonzero"/><path fill="#ffba00" d="M 911.851562 1064.058594 L 809.496094 1064.058594 L 809.496094 961.703125 L 911.851562 961.703125 Z M 911.851562 1064.058594 " fill-opacity="1" fill-rule="nonzero"/><path fill="#ffba00" d="M 758.324219 910.527344 L 655.96875 910.527344 L 655.96875 808.175781 L 758.324219 808.175781 Z M 758.324219 910.527344 " fill-opacity="1" fill-rule="nonzero"/><path fill="#ffba00" d="M 911.851562 910.527344 L 809.496094 910.527344 L 809.496094 808.175781 L 911.851562 808.175781 Z M 911.851562 910.527344 " fill-opacity="1" fill-rule="nonzero"/><path fill="#ffba00" d="M 252.007812 875.804688 L 783.90625 568.703125 L 1315.8125 875.804688 L 1315.8125 1182.894531 L 1436.828125 1182.894531 L 1436.828125 805.933594 L 783.90625 428.972656 L 130.992188 805.933594 L 130.992188 1182.894531 L 252.007812 1182.894531 Z M 252.007812 875.804688 " fill-opacity="1" fill-rule="nonzero"/><g clip-path="url(#63fdadc035)"><path fill="#ffba00" d="M 783.90625 428.972656 L 852.621094 529.039062 L 1436.828125 191.742188 L 1436.828125 52.011719 Z M 783.90625 428.972656 " fill-opacity="1" fill-rule="nonzero"/></g><g clip-path="url(#b5b3bc57c8)"><path fill="#ffba00" d="M 253.308594 794.730469 L 253.308594 52.011719 L 132.300781 52.011719 L 132.300781 937.367188 Z M 253.308594 794.730469 " fill-opacity="1" fill-rule="nonzero"/></g><g clip-path="url(#98284016bf)"><path fill="#ffba00" d="M 132.300781 52.011719 L 1436.828125 52.011719 L 1436.828125 173.027344 L 132.300781 173.027344 Z M 132.300781 52.011719 " fill-opacity="1" fill-rule="nonzero"/></g></svg>